# xmcd
#
# Track frame offsets: 
#        150
#        25028
#        47235
#        73642
#        92924
#        109131
#        131638
#        153245
#        176877
#
# Disc length: 2634 seconds
#
# Revision: 6
# Processed by: cddbd v1.5.2PL0 Copyright (c) Steve Scherf et al.
# Submitted via: ExactAudioCopy v1.0b3
#
DISCID=780a4809
DTITLE=Frédéric Chopin - Nocturnes op. 9, 15, 27, 32
DYEAR=1963
DGENRE=Romantique
TTITLE0=Nocturne en si bémol mineur op. 9 n° 1
TTITLE1=Nocturne en mi bémol majeur op. 9 n° 2
TTITLE2=Nocturne en si majeur op. 9 n° 2
TTITLE3=Nocturne en fa majeur op. 15 n° 1
TTITLE4=Nocturne en fa dièse majeur op. 15 n° 2
TTITLE5=Nocturne en sol mineur op. 15 n° 3
TTITLE6=Nocturne en ut dièse mineur op. 27 n° 1
TTITLE7=Nocturne en ré bémol majeur op. 27 n° 2
TTITLE8=Nocturne en si majeur op. 32 n° 1
EXTD=YEAR: 1963
EXTT0=
EXTT1=
EXTT2=
EXTT3=
EXTT4=
EXTT5=
EXTT6=
EXTT7=
EXTT8=
PLAYORDER=
